<svg width="29" height="24" viewBox="0 0 29 24" fill="none" xmlns="http://www.w3.org/2000/svg">
<g clip-path="url(#clip0_135_2735)">
<path d="M19.351 13.65C17.9939 13.13 16.3237 12.75 14.4331 12.75C12.5425 12.75 10.8723 13.14 9.51526 13.65C8.26259 14.13 7.47388 15.21 7.47388 16.39V18H21.3923V16.39C21.3923 15.21 20.6036 14.13 19.351 13.65ZM1.92969 14.58C1.07139 14.9 0.514648 15.62 0.514648 16.43V18H5.73407V16.39C5.73407 15.56 6.00084 14.78 6.46479 14.1C6.03564 14.04 5.60649 14 5.15414 14C4.00586 14 2.91558 14.21 1.92969 14.58ZM26.9365 14.58C25.9506 14.21 24.8604 14 23.7121 14C23.2597 14 22.8306 14.04 22.4014 14.1C22.8654 14.78 23.1322 15.56 23.1322 16.39V18H28.3516V16.43C28.3516 15.62 27.7948 14.9 26.9365 14.58ZM14.4331 12C16.3585 12 17.9127 10.66 17.9127 9C17.9127 7.34 16.3585 6 14.4331 6C12.5077 6 10.9535 7.34 10.9535 9C10.9535 10.66 12.5077 12 14.4331 12ZM2.25075 11L5.15402 8.497L8.05741 11L5.15402 13.5032L2.25075 11ZM23.7121 9L20.8124 13H26.6118L23.7121 9Z" fill="white"/>
</g>
<defs>
<clipPath id="clip0_135_2735">
<rect width="27.8369" height="24" fill="white" transform="translate(0.514648)"/>
</clipPath>
</defs>
</svg>
