<svg width="20" height="17" viewBox="0 0 20 17" fill="none" xmlns="http://www.w3.org/2000/svg">
<path fill-rule="evenodd" clip-rule="evenodd" d="M2 0C0.895431 0 0 0.89543 0 2V15C0 16.1046 0.895431 17 2 17H18C19.1046 17 20 16.1046 20 15V2C20 0.895431 19.1046 0 18 0H2ZM4.187 5.857C4.187 6.061 4.289 6.27633 4.493 6.503L6.805 8.713L4.527 10.838C4.43633 10.9287 4.391 11.0363 4.391 11.161C4.391 11.3877 4.51567 11.62 4.765 11.858C5.02567 12.0847 5.28633 12.198 5.547 12.198C5.683 12.198 5.79067 12.1583 5.87 12.079L8.624 9.393C8.77133 9.27967 8.86767 9.17767 8.913 9.087C8.96967 8.99633 8.998 8.87167 8.998 8.713C8.998 8.56567 8.96967 8.43533 8.913 8.322C8.85633 8.20867 8.75433 8.09533 8.607 7.982L5.836 5.33C5.68867 5.126 5.45067 5.024 5.122 5.024C4.86133 5.024 4.64033 5.109 4.459 5.279C4.27767 5.43767 4.187 5.63033 4.187 5.857ZM9.39112 14.901C9.56112 15.071 9.79346 15.156 10.0881 15.156H15.6131C15.9078 15.156 16.1345 15.071 16.2931 14.901C16.4518 14.731 16.5311 14.5327 16.5311 14.306C16.5311 14.068 16.4461 13.864 16.2761 13.694C16.1175 13.524 15.8965 13.439 15.6131 13.439H10.0881C9.79346 13.439 9.56112 13.524 9.39112 13.694C9.22112 13.864 9.13612 14.068 9.13612 14.306C9.13612 14.5327 9.22112 14.731 9.39112 14.901Z" fill="white"/>
</svg>
