<svg width="23" height="16" viewBox="0 0 23 16" fill="none" xmlns="http://www.w3.org/2000/svg">
<path fill-rule="evenodd" clip-rule="evenodd" d="M2 0C0.895431 0 0 0.89543 0 2V11C0 12.1046 0.89543 13 2 13H21C22.1046 13 23 12.1046 23 11V2C23 0.895431 22.1046 0 21 0H2ZM6.65 14C6.15294 14 5.75 14.4029 5.75 14.9C5.75 15.3971 6.15294 15.8 6.65 15.8H16.35C16.8471 15.8 17.25 15.3971 17.25 14.9C17.25 14.4029 16.8471 14 16.35 14H6.65ZM3.45 5C3.45 4.44772 3.89772 4 4.45 4H10.5C11.0523 4 11.5 4.44772 11.5 5C11.5 5.55228 11.0523 6 10.5 6H4.45C3.89771 6 3.45 5.55228 3.45 5ZM4.45 7C3.89772 7 3.45 7.44772 3.45 8C3.45 8.55229 3.89772 9 4.45 9H16.25C16.8023 9 17.25 8.55229 17.25 8C17.25 7.44772 16.8023 7 16.25 7H4.45Z" fill="white"/>
</svg>
