<svg width="16" height="16" viewBox="0 0 16 16" fill="none" xmlns="http://www.w3.org/2000/svg">
<path d="M8.61523 8.66667V14C8.61523 15.1046 9.51067 16 10.6152 16H13.9999C15.1044 16 15.9999 15.1046 15.9999 14V8.66667C15.9999 7.5621 15.1044 6.66667 13.9998 6.66667H10.6152C9.51066 6.66667 8.61523 7.5621 8.61523 8.66667Z" fill="black"/>
<path d="M0 2V7.33333C0 8.4379 0.895431 9.33333 2 9.33333H5.38462C6.48919 9.33333 7.38462 8.4379 7.38462 7.33333V2C7.38462 0.895431 6.48918 0 5.38462 0H2C0.89543 0 0 0.895429 0 2Z" fill="black"/>
<path d="M0 12.6667V14C0 15.1046 0.895431 16 2 16H5.38462C6.48919 16 7.38462 15.1046 7.38462 14V12.6667C7.38462 11.5621 6.48918 10.6667 5.38462 10.6667H2C0.89543 10.6667 0 11.5621 0 12.6667Z" fill="black"/>
<path d="M8.61523 2V3.33333C8.61523 4.4379 9.51067 5.33333 10.6152 5.33333H13.9999C15.1044 5.33333 15.9999 4.4379 15.9999 3.33333V2C15.9999 0.89543 15.1044 0 13.9998 0H10.6152C9.51066 0 8.61523 0.895432 8.61523 2Z" fill="black"/>
</svg>
