<svg width="19" height="16" viewBox="0 0 19 16" fill="none" xmlns="http://www.w3.org/2000/svg">
<path d="M10.2301 8.66699V14.0003C10.2301 15.1049 11.1256 16.0003 12.2301 16.0003H16.7953C17.8999 16.0003 18.7953 15.1049 18.7953 14.0003V8.66699C18.7953 7.56242 17.8999 6.66699 16.7953 6.66699H12.2301C11.1256 6.66699 10.2301 7.56242 10.2301 8.66699Z" fill="white"/>
<path d="M0.237396 2V7.33333C0.237396 8.4379 1.13283 9.33333 2.2374 9.33333H6.80261C7.90718 9.33333 8.80261 8.4379 8.80261 7.33333V2C8.80261 0.895431 7.90718 0 6.80261 0H2.2374C1.13283 0 0.237396 0.895429 0.237396 2Z" fill="white"/>
<path d="M0.237396 12.667V14.0003C0.237396 15.1049 1.13283 16.0003 2.2374 16.0003H6.80261C7.90718 16.0003 8.80261 15.1049 8.80261 14.0003V12.667C8.80261 11.5624 7.90718 10.667 6.80261 10.667H2.2374C1.13283 10.667 0.237396 11.5624 0.237396 12.667Z" fill="white"/>
<path d="M10.2301 2V3.33333C10.2301 4.4379 11.1256 5.33333 12.2301 5.33333H16.7953C17.8999 5.33333 18.7953 4.4379 18.7953 3.33333V2C18.7953 0.89543 17.8999 0 16.7953 0H12.2301C11.1256 0 10.2301 0.895432 10.2301 2Z" fill="white"/>
</svg>
