<svg width="97" height="86" viewBox="0 0 97 86" fill="none" xmlns="http://www.w3.org/2000/svg">
<path fill-rule="evenodd" clip-rule="evenodd" d="M66.0643 41.8831L48.3382 0L30.6121 41.8831H36.9084L36.9084 41.8831H30.6104V44.1169H30.6121L48.3382 86L66.0643 44.1169L66.0683 44.1169V41.8831H60.0224L60.0224 41.8831H66.0643ZM60.0224 41.8831H36.9084L48.4654 14.5763L60.0224 41.8831ZM60.0224 41.8831H36.9084L36.8063 42.1245H60.1246L60.0224 41.8831ZM36.8055 43.5938H36.8063L48.4654 71.1419L60.1245 43.5938H60.1275V42.1245H36.8055V43.5938ZM30.2458 34.8008L28.0593 39.9025L11.661 33.5254L20.2246 56.1186L12.7542 52.839L0 22.5932L30.2458 34.8008ZM66.687 34.8008L68.8734 39.9025L85.2717 33.5254L76.7082 56.1186L84.1785 52.839L96.9327 22.5932L66.687 34.8008ZM84.543 58.1229L86.7294 63.2246L56.4837 75.4322L69.2379 45.1864L76.7083 41.9068L68.1447 64.5L84.543 58.1229ZM9.83912 63.2246L12.0256 58.1229L28.4239 64.5L19.8603 41.9068L27.3306 45.1864L40.0849 75.4322L9.83912 63.2246Z" fill="white"/>
</svg>
