<svg width="97" height="86" viewBox="0 0 97 86" fill="none" xmlns="http://www.w3.org/2000/svg">
<path fill-rule="evenodd" clip-rule="evenodd" d="M66.0638 41.8831L48.3377 0L30.6116 41.8831H36.9079L36.9079 41.8831H30.6099V44.1169H30.6117L48.3377 86L66.0638 44.1169L66.0678 44.1169V41.8831H60.0219L60.0219 41.8831H66.0638ZM60.0219 41.8831H36.9079L48.4649 14.5763L60.0219 41.8831ZM60.0219 41.8831H36.9079L36.8058 42.1245H60.1241L60.0219 41.8831ZM36.805 43.5938H36.8058L48.4649 71.1419L60.1241 43.5938H60.127V42.1245H36.805V43.5938ZM30.2453 34.8008L28.0588 39.9025L11.6605 33.5254L20.2241 56.1186L12.7537 52.839L-0.000488281 22.5932L30.2453 34.8008ZM66.6865 34.8008L68.8729 39.9025L85.2712 33.5254L76.7077 56.1186L84.178 52.839L96.9323 22.5932L66.6865 34.8008ZM84.5425 58.1229L86.729 63.2246L56.4832 75.4322L69.2374 45.1864L76.7078 41.9068L68.1442 64.5L84.5425 58.1229ZM9.83863 63.2246L12.0251 58.1229L28.4234 64.5L19.8598 41.9068L27.3302 45.1864L40.0844 75.4322L9.83863 63.2246Z" fill="black"/>
</svg>
